<svg width="1440" height="1024" viewBox="0 0 1440 1024" fill="none" xmlns="http://www.w3.org/2000/svg">
<g clip-path="url(#clip0_1_2)">
<path d="M971.065 69.8112C1023.7 156.983 1327.75 201.583 1473.2 212.986L1421.25 -124.046L-33.1954 -124.046C-33.1953 -43.7999 -29.0397 120.999 -12.4175 138.231C226.527 149.635 389.287 29.2659 420.453 17.8626C492.483 68.5441 817.54 73.6123 971.065 69.8112Z" fill="white" fill-opacity="0.5"/>
<path d="M1010.9 829.55C1066.08 679.967 1384.87 603.437 1537.36 583.869L1482.9 1162.2H-42.0315C-42.0315 1024.5 -37.6746 741.714 -20.2468 712.145C230.277 692.578 400.924 899.124 433.601 918.691C509.122 831.725 849.931 823.028 1010.9 829.55Z" fill="white" fill-opacity="0.5"/>
<path d="M348.735 683.91C289.798 468.836 -50.6424 358.799 -213.495 330.664L-155.334 1162.2H1473.2C1473.2 964.214 1468.54 557.617 1449.93 515.102C1182.39 486.968 1000.15 783.944 965.25 812.079C884.599 687.036 520.635 674.532 348.735 683.91Z" fill="white" fill-opacity="0.5"/>
</g>
<defs>
<clipPath id="clip0_1_2">
<rect width="1440" height="1024" fill="white"/>
</clipPath>
</defs>
</svg>
