<svg width="572" height="208" viewBox="0 0 572 208" fill="none" xmlns="http://www.w3.org/2000/svg">
<path d="M67.328 114.137C64.9387 114.137 63.1893 113.795 62.08 113.113C60.9707 112.43 60.288 111.491 60.032 110.297C59.776 109.017 59.648 107.694 59.648 106.329V32.4726C59.648 31.1073 59.776 29.8273 60.032 28.6326C60.3733 27.4379 61.056 26.4993 62.08 25.8166C63.1893 25.134 64.9813 24.7926 67.456 24.7926C69.8453 24.7926 71.552 25.134 72.576 25.8166C73.6853 26.4993 74.368 27.4379 74.624 28.6326C74.9653 29.8273 75.136 31.1499 75.136 32.6006V106.457C75.136 107.822 74.9653 109.102 74.624 110.297C74.368 111.491 73.6853 112.43 72.576 113.113C71.4667 113.795 69.7173 114.137 67.328 114.137ZM11.264 114.137C8.87467 114.137 7.12533 113.795 6.016 113.113C4.992 112.43 4.30933 111.491 3.968 110.297C3.712 109.017 3.584 107.694 3.584 106.329V32.4726C3.584 31.1073 3.712 29.8273 3.968 28.6326C4.30933 27.4379 5.03467 26.4993 6.144 25.8166C7.25333 25.134 9.00267 24.7926 11.392 24.7926C13.8667 24.7926 15.616 25.134 16.64 25.8166C17.7493 26.4993 18.432 27.4379 18.688 28.6326C18.944 29.8273 19.072 31.1499 19.072 32.6006V106.457C19.072 107.822 18.9013 109.102 18.56 110.297C18.304 111.491 17.6213 112.43 16.512 113.113C15.488 113.795 13.7387 114.137 11.264 114.137ZM14.976 75.6086V61.7846H61.696L61.568 75.6086H14.976Z" fill="black"/>
<path d="M98.407 114.265C96.0177 114.265 94.2683 113.881 93.159 113.113C92.0497 112.43 91.367 111.491 91.111 110.297C90.855 109.102 90.727 107.779 90.727 106.329V32.4726C90.727 29.5713 91.2817 27.5659 92.391 26.4566C93.5857 25.3473 95.719 24.7926 98.791 24.7926H148.711C150.162 24.7926 151.442 24.9633 152.551 25.3046C153.746 25.5606 154.684 26.2433 155.367 27.3526C156.05 28.3766 156.391 30.126 156.391 32.6006C156.391 34.9899 156.007 36.7393 155.239 37.8486C154.556 38.958 153.618 39.6406 152.423 39.8966C151.314 40.1526 150.034 40.2806 148.583 40.2806H106.215V61.7846H135.399C136.85 61.7846 138.087 61.9553 139.111 62.2966C140.135 62.5526 140.946 63.15 141.543 64.0886C142.14 65.0273 142.439 66.6059 142.439 68.8246C142.439 70.9579 142.14 72.5366 141.543 73.5606C140.946 74.4993 140.092 75.0966 138.983 75.3526C137.874 75.5233 136.594 75.6086 135.143 75.6086H106.215V98.6486H148.711C150.162 98.6486 151.442 98.8193 152.551 99.1606C153.746 99.4166 154.684 100.099 155.367 101.209C156.05 102.318 156.391 104.067 156.391 106.457C156.391 108.846 156.007 110.595 155.239 111.705C154.556 112.814 153.618 113.497 152.423 113.753C151.314 114.094 150.034 114.265 148.583 114.265H98.407Z" fill="black"/>
<path d="M177.151 114.137C174.762 114.137 173.012 113.795 171.903 113.113C170.879 112.43 170.196 111.491 169.855 110.297C169.599 109.017 169.471 107.694 169.471 106.329V32.4726C169.471 31.1073 169.642 29.8699 169.983 28.7606C170.324 27.5659 171.007 26.6273 172.031 25.9446C173.14 25.1766 174.89 24.7926 177.279 24.7926H204.671C208.596 24.7926 212.308 25.4326 215.807 26.7126C219.391 27.9073 222.591 29.7846 225.407 32.3446C228.223 34.8193 230.442 37.9766 232.063 41.8166C233.77 45.5713 234.623 49.966 234.623 55.0006C234.623 58.3286 234.111 61.6566 233.087 64.9846C232.063 68.2273 230.527 71.2566 228.479 74.0726C226.516 76.8033 223.999 79.15 220.927 81.1126C217.855 83.0753 214.228 84.3553 210.047 84.9526H184.959V106.457C184.959 107.822 184.788 109.102 184.447 110.297C184.191 111.491 183.508 112.43 182.399 113.113C181.375 113.795 179.626 114.137 177.151 114.137ZM231.679 112.217C229.204 113.923 227.156 114.563 225.535 114.137C223.999 113.71 222.463 112.345 220.927 110.041L199.423 77.5286L216.703 75.2246L233.727 101.081C234.922 102.787 235.647 104.238 235.903 105.433C236.159 106.627 235.946 107.737 235.263 108.761C234.58 109.785 233.386 110.937 231.679 112.217ZM184.959 69.5926H206.591C208.127 69.5926 209.62 69.3366 211.071 68.8246C212.607 68.2273 213.972 67.3313 215.167 66.1366C216.362 64.8566 217.3 63.3206 217.983 61.5286C218.751 59.6513 219.135 57.4326 219.135 54.8726C219.135 51.8006 218.538 49.1979 217.343 47.0646C216.148 44.8459 214.442 43.182 212.223 42.0726C210.09 40.878 207.487 40.2806 204.415 40.2806H184.959V69.5926Z" fill="black"/>
<path d="M286.642 115.289C280.498 115.289 274.738 114.137 269.362 111.833C264.071 109.443 259.378 106.201 255.282 102.105C251.186 97.9233 247.986 93.1446 245.682 87.7686C243.378 82.3073 242.226 76.462 242.226 70.2326C242.226 63.8326 243.335 57.8593 245.554 52.3126C247.858 46.6806 250.973 41.7739 254.898 37.5926C258.909 33.3259 263.517 29.9979 268.722 27.6086C273.927 25.2193 279.517 24.0246 285.49 24.0246C291.719 24.0246 297.479 25.2193 302.77 27.6086C308.146 29.9126 312.839 33.1553 316.85 37.3366C320.861 41.5179 324.018 46.3819 326.322 51.9286C328.626 57.3899 329.778 63.3206 329.778 69.7206C329.778 75.95 328.669 81.838 326.45 87.3846C324.231 92.846 321.117 97.71 317.106 101.977C313.095 106.158 308.487 109.443 303.282 111.833C298.162 114.137 292.615 115.289 286.642 115.289ZM286.002 99.6726C289.927 99.6726 293.597 98.9046 297.01 97.3686C300.423 95.8326 303.41 93.6993 305.97 90.9686C308.615 88.238 310.663 85.0806 312.114 81.4966C313.565 77.8273 314.29 73.902 314.29 69.7206C314.29 65.5393 313.522 61.6566 311.986 58.0726C310.535 54.4033 308.487 51.2033 305.842 48.4726C303.282 45.6566 300.295 43.4806 296.882 41.9446C293.554 40.4086 289.927 39.6406 286.002 39.6406C282.162 39.6406 278.535 40.4086 275.122 41.9446C271.709 43.4806 268.679 45.6566 266.034 48.4726C263.474 51.2033 261.469 54.4033 260.018 58.0726C258.567 61.742 257.842 65.6246 257.842 69.7206C257.842 73.8166 258.567 77.6993 260.018 81.3686C261.554 85.038 263.602 88.238 266.162 90.9686C268.722 93.6993 271.666 95.8326 274.994 97.3686C278.407 98.9046 282.077 99.6726 286.002 99.6726ZM279.09 20.0566C277.725 20.3126 276.573 20.0566 275.634 19.2886C274.781 18.5206 274.055 17.1553 273.458 15.1926C272.69 12.8033 272.519 11.0113 272.946 9.81661C273.458 8.53661 274.781 7.55528 276.914 6.87261L298.418 0.0886165C299.783 -0.167385 300.893 0.13128 301.746 0.984613C302.685 1.75261 303.41 3.11795 303.922 5.08061C304.775 7.38461 304.903 9.17661 304.306 10.4566C303.794 11.6513 302.514 12.5899 300.466 13.2726L279.09 20.0566Z" fill="black"/>
<path d="M346.871 114.265C344.482 114.265 342.732 113.881 341.623 113.113C340.514 112.43 339.831 111.491 339.575 110.297C339.319 109.102 339.191 107.779 339.191 106.329V32.4726C339.191 31.1073 339.319 29.8273 339.575 28.6326C339.916 27.4379 340.599 26.4993 341.623 25.8166C342.732 25.134 344.524 24.7926 346.999 24.7926C349.388 24.7926 351.095 25.134 352.119 25.8166C353.228 26.4993 353.911 27.4379 354.167 28.6326C354.508 29.8273 354.679 31.1499 354.679 32.6006V106.457C354.679 107.907 354.508 109.23 354.167 110.425C353.911 111.534 353.228 112.43 352.119 113.113C351.01 113.881 349.26 114.265 346.871 114.265Z" fill="black"/>
<path d="M395.848 115.417C392.008 115.417 388.509 114.947 385.352 114.009C382.28 113.07 379.549 111.875 377.16 110.425C374.856 108.974 372.893 107.481 371.272 105.945C369.651 104.409 368.456 103.001 367.688 101.721C366.579 100.185 365.853 98.8193 365.512 97.6246C365.171 96.43 365.256 95.278 365.768 94.1686C366.365 92.9739 367.432 91.7366 368.968 90.4566C370.504 89.0913 371.912 88.4086 373.192 88.4086C374.557 88.3233 375.837 88.7073 377.032 89.5606C378.312 90.4139 379.549 91.6086 380.744 93.1446C382.792 95.8753 385.096 97.838 387.656 99.0326C390.216 100.142 392.776 100.697 395.336 100.697C398.664 100.697 401.565 100.27 404.04 99.4166C406.515 98.478 408.435 97.1126 409.8 95.3206C411.251 93.5286 411.976 91.2246 411.976 88.4086C411.976 86.1046 411.251 84.2273 409.8 82.7766C408.435 81.2406 406.6 79.9606 404.296 78.9366C401.992 77.8273 399.389 76.846 396.488 75.9926C393.672 75.054 390.813 74.03 387.912 72.9206C385.864 72.238 383.816 71.4273 381.768 70.4886C379.72 69.4646 377.8 68.3126 376.008 67.0326C374.301 65.7526 372.765 64.2593 371.4 62.5526C370.12 60.7606 369.096 58.7126 368.328 56.4086C367.56 54.1046 367.176 51.4166 367.176 48.3446C367.176 43.4806 368.371 39.2139 370.76 35.5446C373.149 31.7899 376.477 28.8459 380.744 26.7126C385.011 24.4939 389.875 23.3846 395.336 23.3846C398.835 23.3846 401.949 23.7259 404.68 24.4086C407.496 25.0059 409.885 25.8166 411.848 26.8406C413.896 27.7793 415.56 28.7606 416.84 29.7846C418.205 30.7233 419.187 31.5339 419.784 32.2166C421.747 34.1793 422.813 35.8433 422.984 37.2086C423.24 38.4886 422.472 40.238 420.68 42.4566C418.888 44.7606 417.139 46.0406 415.432 46.2966C413.811 46.4673 411.976 45.7846 409.928 44.2486C408.563 42.798 407.197 41.646 405.832 40.7926C404.467 39.8539 402.931 39.1713 401.224 38.7446C399.603 38.3179 397.597 38.1046 395.208 38.1046C393.501 38.1046 391.837 38.3606 390.216 38.8726C388.68 39.2993 387.357 39.982 386.248 40.9206C385.139 41.7739 384.243 42.8406 383.56 44.1206C382.963 45.4006 382.664 46.8513 382.664 48.4726C382.664 50.6913 383.261 52.526 384.456 53.9766C385.736 55.3419 387.443 56.4939 389.576 57.4326C391.709 58.2859 394.099 59.0966 396.744 59.8646C399.389 60.6326 402.077 61.4433 404.808 62.2966C407.624 63.2353 410.397 64.3446 413.128 65.6246C415.859 66.9046 418.291 68.526 420.424 70.4886C422.557 72.366 424.264 74.7553 425.544 77.6566C426.824 80.4726 427.464 83.9286 427.464 88.0246C427.464 92.718 426.568 96.814 424.776 100.313C422.984 103.811 420.552 106.67 417.48 108.889C414.408 111.107 410.995 112.729 407.24 113.753C403.485 114.862 399.688 115.417 395.848 115.417Z" fill="black"/>
<path d="M475.68 91.9446C473.547 91.39 471.755 90.4513 470.304 89.1286C468.896 87.7633 467.829 86.1633 467.104 84.3286C466.421 82.494 466.08 80.574 466.08 78.5686C466.08 75.7953 466.677 73.1286 467.872 70.5686C469.067 67.966 470.667 65.662 472.672 63.6566C474.72 61.6086 477.024 59.9873 479.584 58.7926C482.187 57.598 484.875 57.0006 487.648 57.0006C488.629 57.0006 489.568 57.15 490.464 57.4486C491.403 57.7046 492.341 57.854 493.28 57.8966L493.536 57.0646C493.579 56.2966 493.643 55.3366 493.728 54.1846C493.813 53.0326 493.92 51.8379 494.048 50.6006C494.219 49.3206 494.389 48.1046 494.56 46.9526C494.773 45.8006 495.008 44.8833 495.264 44.2006C495.605 43.2193 496.096 42.3873 496.736 41.7046C497.376 40.9793 498.229 40.6166 499.296 40.6166C500.363 40.6166 501.045 40.9579 501.344 41.6406C501.685 42.3233 501.856 43.1766 501.856 44.2006V45.8006C501.259 50.7073 500.789 55.55 500.448 60.3286C500.149 65.0646 500 69.8006 500 74.5366C500 76.7126 500.107 78.846 500.32 80.9366C500.533 82.9846 500.64 85.1393 500.64 87.4006C500.64 88.2113 500.512 89.022 500.256 89.8326C500.043 90.6006 499.403 90.9846 498.336 90.9846C497.227 90.9846 496.373 90.686 495.776 90.0886C495.179 89.4486 494.752 88.6593 494.496 87.7206C494.24 86.782 494.027 85.886 493.856 85.0326C493.771 84.3926 493.685 84.0726 493.6 84.0726H493.344C491.125 86.5046 488.843 88.4246 486.496 89.8326C484.192 91.2406 481.525 91.9446 478.496 91.9446H475.68ZM478.112 85.4166C479.776 85.4166 481.376 84.9686 482.912 84.0726C484.448 83.1766 485.813 82.0033 487.008 80.5526C488.245 79.102 489.205 77.5446 489.888 75.8806C490.613 74.174 490.976 72.5526 490.976 71.0166C490.976 70.6326 490.891 70.0566 490.72 69.2886C490.549 68.5206 490.336 67.71 490.08 66.8566C489.824 66.0033 489.547 65.2993 489.248 64.7446C488.992 64.1473 488.757 63.8486 488.544 63.8486C486.496 63.8486 484.555 64.2753 482.72 65.1286C480.885 65.9393 479.243 67.0486 477.792 68.4566C476.384 69.8646 475.253 71.4646 474.4 73.2566C473.589 75.0486 473.184 76.926 473.184 78.8886V81.4486C473.525 82.686 474.101 83.6673 474.912 84.3926C475.723 85.0753 476.789 85.4166 478.112 85.4166Z" fill="black"/>
<path d="M520.955 91.6246C518.992 91.6246 517.157 91.1766 515.451 90.2806C513.744 89.3846 512.315 88.19 511.163 86.6966C510.011 85.1606 509.264 83.4326 508.922 81.5126V78.2486C508.922 75.8593 509.349 73.4486 510.203 71.0166C511.056 68.5846 512.272 66.3446 513.851 64.2966C515.429 62.2059 517.306 60.542 519.482 59.3046C521.658 58.0246 524.048 57.3846 526.651 57.3846C527.717 57.3846 528.635 57.5766 529.403 57.9606C530.213 58.3446 530.938 58.75 531.578 59.1766C532.261 59.5606 532.922 59.7953 533.562 59.8806C533.904 58.1313 534.373 56.9793 534.971 56.4246C535.568 55.8273 536.379 55.5286 537.403 55.5286C538.64 55.5286 539.472 55.934 539.898 56.7446C540.368 57.5126 540.602 58.494 540.602 59.6886C540.602 62.0353 540.539 64.3393 540.411 66.6006C540.325 68.8619 540.282 71.1873 540.282 73.5766C540.282 75.454 540.389 77.3953 540.602 79.4006C540.816 81.406 540.922 83.3473 540.922 85.2246V86.5686C540.922 87.5073 540.73 88.382 540.346 89.1926C540.005 89.9606 539.216 90.3446 537.979 90.3446C536.827 90.3446 535.994 90.0033 535.482 89.3206C535.013 88.5953 534.693 87.742 534.523 86.7606C534.395 85.7366 534.266 84.8193 534.138 84.0086L533.883 83.7526C532.432 85.2033 531.131 86.526 529.979 87.7206C528.869 88.9153 527.632 89.8753 526.266 90.6006C524.901 91.2833 523.131 91.6246 520.955 91.6246ZM520.315 85.1606C521.808 85.1606 523.216 84.7126 524.539 83.8166C525.904 82.878 527.12 81.6833 528.187 80.2326C529.253 78.7393 530.085 77.182 530.682 75.5606C531.28 73.9393 531.578 72.4246 531.578 71.0166C531.578 69.9499 531.429 68.8833 531.13 67.8166C530.832 66.7073 530.32 65.7686 529.594 65.0006C528.912 64.2326 527.931 63.8486 526.651 63.8486C525.243 63.8486 523.856 64.3393 522.49 65.3206C521.168 66.302 519.973 67.5606 518.906 69.0966C517.84 70.59 516.986 72.1686 516.346 73.8326C515.706 75.454 515.386 76.926 515.386 78.2486C515.386 79.3153 515.536 80.382 515.834 81.4486C516.176 82.5153 516.709 83.4113 517.435 84.1366C518.16 84.8193 519.12 85.1606 520.315 85.1606Z" fill="black"/>
<path d="M43.488 138.209C44 137.249 44.864 136.577 46.08 136.193C47.296 135.809 48.832 135.617 50.688 135.617C52.544 135.617 54.016 135.777 55.104 136.097C56.192 136.417 57.024 136.801 57.6 137.249C58.176 137.697 58.624 138.337 58.944 139.169C59.264 140.257 59.424 141.921 59.424 144.161V197.441C59.424 198.913 59.36 200.033 59.232 200.801C59.168 201.505 58.88 202.337 58.368 203.297C57.472 205.025 54.976 205.889 50.88 205.889C46.4 205.889 43.776 204.705 43.008 202.337C42.624 201.249 42.432 199.585 42.432 197.345V177.857H16.992V197.441C16.992 198.913 16.928 200.033 16.8 200.801C16.736 201.505 16.448 202.337 15.936 203.297C15.04 205.025 12.544 205.889 8.448 205.889C3.968 205.889 1.344 204.705 0.576 202.337C0.192 201.249 0 199.585 0 197.345V144.065C0 142.593 0.0319999 141.505 0.0959998 140.801C0.224 140.033 0.544 139.169 1.056 138.209C1.952 136.481 4.448 135.617 8.544 135.617C13.024 135.617 15.68 136.801 16.512 139.169C16.832 140.257 16.992 141.921 16.992 144.161V163.745H42.432V144.065C42.432 142.593 42.464 141.505 42.528 140.801C42.656 140.033 42.976 139.169 43.488 138.209Z" fill="black"/>
<path d="M65.685 180.737C65.685 173.057 68.373 166.721 73.749 161.729C79.125 156.737 85.269 154.241 92.181 154.241C99.093 154.241 105.205 156.737 110.517 161.729C115.829 166.657 118.485 172.961 118.485 180.641C118.485 185.953 117.109 190.689 114.357 194.849C111.605 198.945 108.245 201.985 104.277 203.969C100.373 205.889 96.309 206.849 92.085 206.849C87.861 206.849 83.765 205.825 79.797 203.777C75.829 201.665 72.469 198.593 69.717 194.561C67.029 190.465 65.685 185.857 65.685 180.737ZM85.749 187.649C87.797 189.185 89.877 189.953 91.989 189.953C94.101 189.953 96.213 189.153 98.325 187.553C100.437 185.953 101.493 183.585 101.493 180.449C101.493 177.313 100.501 174.977 98.517 173.441C96.533 171.905 94.389 171.137 92.085 171.137C89.781 171.137 87.637 171.937 85.653 173.537C83.669 175.137 82.677 177.505 82.677 180.641C82.677 183.713 83.701 186.049 85.749 187.649Z" fill="black"/>
<path d="M152.816 155.393C159.216 155.393 164.527 157.857 168.751 162.785C173.039 167.649 175.184 173.601 175.184 180.641V197.537C175.184 199.009 175.12 200.129 174.992 200.897C174.928 201.601 174.672 202.401 174.224 203.297C173.328 205.025 170.832 205.889 166.736 205.889C162.192 205.889 159.567 204.705 158.863 202.337C158.479 201.249 158.288 199.617 158.288 197.441V180.545C158.288 177.921 157.52 175.873 155.984 174.401C154.512 172.929 152.496 172.193 149.936 172.193C147.44 172.193 145.392 172.961 143.792 174.497C142.256 176.033 141.488 178.049 141.488 180.545V197.537C141.488 199.009 141.424 200.129 141.296 200.897C141.232 201.601 140.944 202.401 140.432 203.297C139.6 205.025 137.136 205.889 133.04 205.889C129.008 205.889 126.543 205.025 125.647 203.297C125.199 202.337 124.912 201.505 124.784 200.801C124.72 200.033 124.688 198.913 124.688 197.441V163.457C124.688 162.049 124.72 160.993 124.784 160.289C124.912 159.521 125.231 158.689 125.743 157.793C126.639 156.193 129.103 155.393 133.135 155.393C137.039 155.393 139.439 156.129 140.335 157.601C140.975 158.689 141.296 160.001 141.296 161.537C141.552 161.089 142.127 160.449 143.023 159.617C143.919 158.785 144.783 158.113 145.615 157.601C147.791 156.129 150.192 155.393 152.816 155.393Z" fill="black"/>
<path d="M231.674 174.689C231.674 178.593 230.682 181.505 228.698 183.425C226.778 185.281 224.634 186.209 222.266 186.209H199.514C199.514 188.001 200.57 189.505 202.682 190.721C204.794 191.937 206.906 192.545 209.018 192.545C212.73 192.545 215.642 192.161 217.754 191.393L218.81 191.009C220.346 190.305 221.626 189.953 222.65 189.953C224.698 189.953 226.458 191.393 227.93 194.273C228.762 196.001 229.178 197.473 229.178 198.689C229.178 204.385 222.362 207.233 208.73 207.233C203.994 207.233 199.77 206.433 196.058 204.833C192.41 203.169 189.562 200.993 187.514 198.305C183.482 193.121 181.466 187.329 181.466 180.929C181.466 172.865 184.058 166.433 189.242 161.633C194.49 156.769 201.018 154.337 208.826 154.337C217.722 154.337 224.25 157.473 228.41 163.745C230.586 167.073 231.674 170.721 231.674 174.689ZM211.418 177.473C213.85 177.473 215.066 176.449 215.066 174.401C215.066 172.929 214.49 171.745 213.338 170.849C212.25 169.953 210.65 169.505 208.538 169.505C206.49 169.505 204.442 170.369 202.394 172.097C200.346 173.761 199.322 175.553 199.322 177.473H211.418Z" fill="black"/>
<path d="M238.322 201.473C237.106 200.705 236.497 199.489 236.497 197.825C236.497 196.161 237.713 193.633 240.145 190.241C240.849 189.153 241.969 188.609 243.505 188.609C245.105 188.609 247.249 189.409 249.938 191.009C252.626 192.545 255.057 193.313 257.233 193.313C261.137 193.313 263.09 192.545 263.09 191.009C263.09 189.793 260.946 188.897 256.658 188.321C252.626 187.745 248.626 186.241 244.658 183.809C242.802 182.657 241.265 180.865 240.049 178.433C238.833 175.937 238.225 172.993 238.225 169.601C238.225 159.489 245.169 154.433 259.057 154.433C263.601 154.433 268.273 155.521 273.073 157.697C275.313 158.721 276.434 160.001 276.434 161.537C276.434 163.073 275.73 164.961 274.322 167.201C272.914 169.441 271.473 170.561 270.001 170.561C269.233 170.561 267.793 170.081 265.681 169.121C263.633 168.161 261.393 167.681 258.961 167.681C255.185 167.681 253.298 168.385 253.298 169.793C253.298 171.713 255.474 172.961 259.826 173.537C264.05 173.985 268.145 175.201 272.113 177.185C273.969 178.081 275.505 179.649 276.721 181.889C278.001 184.065 278.642 186.817 278.642 190.145C278.642 193.473 278.001 196.321 276.721 198.689C275.505 200.993 273.778 202.721 271.538 203.873C267.442 205.857 262.29 206.849 256.082 206.849C249.938 206.849 244.018 205.057 238.322 201.473Z" fill="black"/>
<path d="M312.782 172.385L306.542 172.001V185.249C306.542 186.977 306.798 188.225 307.31 188.993C307.886 189.761 308.91 190.145 310.382 190.145C311.918 190.145 313.07 190.209 313.838 190.337C314.67 190.401 315.534 190.689 316.43 191.201C317.902 192.033 318.638 194.177 318.638 197.633C318.638 201.665 317.742 204.129 315.95 205.025C314.99 205.473 314.126 205.761 313.358 205.889C312.654 205.953 311.598 205.985 310.19 205.985C303.534 205.985 298.478 204.481 295.022 201.473C291.566 198.465 289.838 193.377 289.838 186.209V172.001C288.622 172.193 287.31 172.289 285.902 172.289C284.494 172.289 283.31 171.745 282.35 170.657C281.454 169.569 281.006 167.713 281.006 165.089C281.006 162.465 281.166 160.577 281.486 159.425C281.806 158.209 282.254 157.345 282.83 156.833C283.854 156.001 285.134 155.585 286.67 155.585L289.838 155.969V146.081C289.838 144.609 289.87 143.521 289.934 142.817C290.062 142.113 290.382 141.345 290.894 140.513C291.726 138.913 294.19 138.113 298.286 138.113C302.638 138.113 305.23 139.297 306.062 141.665C306.382 142.689 306.542 144.321 306.542 146.561V155.969C309.358 155.713 311.47 155.585 312.878 155.585C314.35 155.585 315.438 155.649 316.142 155.777C316.91 155.841 317.774 156.129 318.734 156.641C320.398 157.473 321.23 159.937 321.23 164.033C321.23 168.065 320.366 170.529 318.638 171.425C317.678 171.873 316.814 172.161 316.046 172.289C315.342 172.353 314.254 172.385 312.782 172.385Z" fill="black"/>
<path d="M326.531 163.841C326.531 162.369 326.563 161.281 326.627 160.577C326.755 159.809 327.043 158.945 327.491 157.985C328.387 156.321 330.883 155.489 334.979 155.489C338.051 155.489 340.227 156.033 341.507 157.121C342.595 158.017 343.171 159.393 343.235 161.249C343.299 161.889 343.331 162.817 343.331 164.033V197.633C343.331 199.105 343.267 200.225 343.139 200.993C343.075 201.697 342.787 202.529 342.275 203.489C341.443 205.153 338.979 205.985 334.883 205.985C330.851 205.985 328.387 205.121 327.491 203.393C327.043 202.433 326.755 201.601 326.627 200.897C326.563 200.193 326.531 199.073 326.531 197.537V163.841ZM342.275 146.081C341.827 146.977 340.995 147.617 339.779 148.001C338.563 148.385 336.931 148.577 334.883 148.577C332.899 148.577 331.299 148.385 330.083 148.001C328.867 147.617 328.003 146.945 327.491 145.985C327.043 145.025 326.755 144.193 326.627 143.489C326.563 142.721 326.531 141.601 326.531 140.129C326.531 138.657 326.563 137.569 326.627 136.865C326.755 136.097 327.043 135.265 327.491 134.369C328.387 132.641 330.883 131.777 334.979 131.777C339.011 131.777 341.443 132.641 342.275 134.369C342.787 135.329 343.075 136.193 343.139 136.961C343.267 137.665 343.331 138.753 343.331 140.225C343.331 141.697 343.267 142.817 343.139 143.585C343.075 144.289 342.787 145.121 342.275 146.081Z" fill="black"/>
<path d="M384.888 134.369C385.4 133.409 386.264 132.737 387.48 132.353C388.696 131.969 390.296 131.777 392.28 131.777C394.328 131.777 395.96 131.969 397.176 132.353C398.392 132.737 399.224 133.409 399.672 134.369C400.184 135.329 400.472 136.193 400.536 136.961C400.664 137.665 400.728 138.753 400.728 140.225V197.537C400.728 199.009 400.664 200.129 400.536 200.897C400.472 201.601 400.184 202.401 399.672 203.297C398.712 205.025 395.992 205.889 391.512 205.889C387.096 205.889 384.632 204.321 384.12 201.185C381.432 204.257 377.688 205.793 372.888 205.793C367.128 205.793 361.88 203.297 357.144 198.305C352.408 193.249 350.04 187.393 350.04 180.737C350.04 174.017 352.408 168.129 357.144 163.073C361.944 158.017 367.192 155.489 372.888 155.489C377.624 155.489 381.304 157.089 383.928 160.289V140.129C383.928 138.657 383.96 137.569 384.024 136.865C384.152 136.097 384.44 135.265 384.888 134.369ZM369.336 186.497C371 188.225 373.016 189.089 375.384 189.089C377.752 189.089 379.704 188.225 381.24 186.497C382.84 184.769 383.64 182.881 383.64 180.833C383.64 178.721 382.872 176.769 381.336 174.977C379.864 173.185 377.848 172.289 375.288 172.289C372.728 172.289 370.68 173.185 369.144 174.977C367.608 176.705 366.84 178.625 366.84 180.737C366.84 182.849 367.672 184.769 369.336 186.497Z" fill="black"/>
<path d="M441.207 160.769C441.591 157.185 444.119 155.393 448.791 155.393C451.287 155.393 453.143 155.585 454.359 155.969C455.575 156.353 456.407 157.025 456.855 157.985C457.367 158.945 457.655 159.809 457.719 160.577C457.847 161.281 457.911 162.369 457.911 163.841V197.441C457.911 198.913 457.847 200.033 457.719 200.801C457.655 201.505 457.399 202.337 456.951 203.297C456.055 204.961 453.847 205.793 450.327 205.793C446.871 205.793 444.535 205.377 443.319 204.545C442.167 203.649 441.495 202.369 441.303 200.705C438.935 204.097 434.967 205.793 429.399 205.793C423.895 205.793 418.775 203.265 414.039 198.209C409.303 193.153 406.935 187.297 406.935 180.641C406.935 173.921 409.303 168.065 414.039 163.073C418.839 158.017 424.087 155.489 429.783 155.489C431.959 155.489 433.943 155.873 435.735 156.641C437.527 157.409 438.775 158.145 439.479 158.849C440.183 159.489 440.759 160.129 441.207 160.769ZM423.735 180.737C423.735 182.849 424.567 184.769 426.231 186.497C427.895 188.161 429.911 188.993 432.279 188.993C434.647 188.993 436.599 188.129 438.135 186.401C439.735 184.673 440.535 182.785 440.535 180.737C440.535 178.625 439.767 176.673 438.231 174.881C436.759 173.089 434.743 172.193 432.183 172.193C429.687 172.193 427.639 173.089 426.039 174.881C424.503 176.673 423.735 178.625 423.735 180.737Z" fill="black"/>
<path d="M499.451 134.369C499.963 133.409 500.827 132.737 502.043 132.353C503.259 131.969 504.858 131.777 506.842 131.777C508.89 131.777 510.522 131.969 511.738 132.353C512.954 132.737 513.786 133.409 514.234 134.369C514.746 135.329 515.035 136.193 515.099 136.961C515.227 137.665 515.291 138.753 515.291 140.225V197.537C515.291 199.009 515.227 200.129 515.099 200.897C515.035 201.601 514.746 202.401 514.234 203.297C513.274 205.025 510.554 205.889 506.074 205.889C501.658 205.889 499.194 204.321 498.682 201.185C495.994 204.257 492.251 205.793 487.451 205.793C481.691 205.793 476.443 203.297 471.707 198.305C466.971 193.249 464.603 187.393 464.603 180.737C464.603 174.017 466.971 168.129 471.707 163.073C476.507 158.017 481.755 155.489 487.451 155.489C492.187 155.489 495.867 157.089 498.491 160.289V140.129C498.491 138.657 498.522 137.569 498.586 136.865C498.714 136.097 499.003 135.265 499.451 134.369ZM483.898 186.497C485.562 188.225 487.579 189.089 489.947 189.089C492.315 189.089 494.266 188.225 495.802 186.497C497.402 184.769 498.203 182.881 498.203 180.833C498.203 178.721 497.434 176.769 495.898 174.977C494.426 173.185 492.41 172.289 489.85 172.289C487.29 172.289 485.243 173.185 483.707 174.977C482.171 176.705 481.402 178.625 481.402 180.737C481.402 182.849 482.234 184.769 483.898 186.497Z" fill="black"/>
<path d="M571.706 174.689C571.706 178.593 570.713 181.505 568.729 183.425C566.809 185.281 564.665 186.209 562.297 186.209H539.545C539.545 188.001 540.602 189.505 542.714 190.721C544.826 191.937 546.938 192.545 549.049 192.545C552.761 192.545 555.674 192.161 557.786 191.393L558.841 191.009C560.377 190.305 561.658 189.953 562.682 189.953C564.73 189.953 566.489 191.393 567.961 194.273C568.793 196.001 569.209 197.473 569.209 198.689C569.209 204.385 562.393 207.233 548.761 207.233C544.025 207.233 539.801 206.433 536.089 204.833C532.441 203.169 529.593 200.993 527.545 198.305C523.513 193.121 521.497 187.329 521.497 180.929C521.497 172.865 524.089 166.433 529.273 161.633C534.521 156.769 541.049 154.337 548.857 154.337C557.753 154.337 564.282 157.473 568.442 163.745C570.618 167.073 571.706 170.721 571.706 174.689ZM551.45 177.473C553.882 177.473 555.097 176.449 555.097 174.401C555.097 172.929 554.522 171.745 553.37 170.849C552.282 169.953 550.682 169.505 548.57 169.505C546.522 169.505 544.473 170.369 542.425 172.097C540.377 173.761 539.354 175.553 539.354 177.473H551.45Z" fill="black"/>
</svg>
